<svg version="1.0" xmlns="http://www.w3.org/2000/svg" width="225pt" height="225pt" viewBox="0 0 225 225"><g transform="translate(0.000000,225.000000) scale(0.100000,-0.100000)" fill="#e05785" stroke="none"><path d="M1343 2242c-7-4-57-102-112-217l-99-210-362-3c-248-1-368-6-377-13-10-9-13-72-13-305 0-253 2-295 16-308 13-13 46-16 203-16h187L608 818 431 465l-1-221c0-158 3-223 12-232C456-2 886-5 907 8c7 4 57 102 112 217l99 210 362 3c248 1 368 6 377 13 10 9 13 72 13 303 0 165-4 297-10 306-8 12-47 16-213 20l-204 5 178 345 179 345v227c0 215-1 228-19 238-23 12-420 14-438 2zm367-259v-178l-195-379c-107-208-195-386-195-395 0-38 18-41 242-41h218V760 530h-354c-311 0-355-2-367-16-7-9-56-107-109-217L854 95l-167-3-167-2v170 170l196 392c171 343 194 394 185 415l-11 23H680 470v230 230h354 355l20 26c12 15 21 30 21 34 0 4 40 92 89 194l90 186h155 156v-177z"/></g></svg>