<svg version="1.0" xmlns="http://www.w3.org/2000/svg" width="192pt" height="200pt" viewBox="0 0 192 200"><g transform="translate(0.000000,200.000000) scale(0.100000,-0.100000)" fill="#e05785" stroke="none"><path d="M997 1994c-4-4-4-81 0-171l6-163h-23c-13 0-32-8-43-17-18-17-20-16-58 27-68 79-90 116-120 206-34 101-45 119-65 103-19-15-18-28 7-74 34-67 89-215 89-242 0-18-5-24-17-21-12 2-26 28-45 83-27 82-64 129-97 123-33-6-24-59 29-161 27-54 50-104 50-111 0-8-13-16-29-19-26-5-30-11-33-44-3-33-6-38-28-38-19 0-29 9-42 35-10 19-30 40-45 47-16 6-60 42-98 80-117 112-204 140-249 80-19-26-19-30-6-54 8-14 48-45 89-68 106-60 191-138 191-176 0-32-27-49-80-49-16 0-35-7-44-15-13-14-13-20-2-48 7-18 20-54 29-82 15-47 15-50-4-68-19-17-19-21-5-43 9-13 16-30 16-38 0-23-49-56-84-56-17 0-51-6-76-14-31-9-55-10-78-4-76 21-142-7-116-50 10-14 24-16 96-13 99 4 188-12 220-40l23-19-27-24c-19-17-44-25-95-31-81-8-115-24-131-60-17-36-15-49 9-71 32-29 87-24 144 14 53 35 61 37 1e2 22 19-7 26-17 25-33-4-42-1-49 20-44 17 4 19 1 14-18-4-16 0-26 13-33 27-16 9-39-73-93-103-69-250-222-274-284-16-41 6-79 49-83 43-4 65 16 92 87 29 79 60 115 137 160 37 21 87 57 112 79l46 40 22-25 22-25 34 21c26 17 36 18 43 9 19-25 23-50 13-94-12-52 0-84 30-84 26 0 40 29 40 84 0 25 3 46 6 46 16 0 66-45 81-73 15-29 15-37 0-102-9-38-21-103-27-144-9-62-8-77 5-97 39-60 70-14 90 136 9 63 22 138 30 165 15 53 55 102 74 91 6-4 20-2 31 4 17 9 28 7 55-10 54-34 65-56 65-135 0-83 7-98 46-93 27 3 29 5 28 48-1 25-5 75-9 111-6 54-5 68 9 82 16 15 20 15 54 2 20-9 44-22 53-31 23-21 86-159 104-229 23-92 64-135 1e2-105 28 24 18 83-27 151-61 95-78 137-78 201 0 51 2 57 23 60 18 2 23 11 27 43 7 55 28 52 67-10 42-66 60-85 78-85 24 0 18 50-15 109-17 30-30 58-30 63 0 5 20-5 44-22 65-47 95-19 34 31-22 18-29 31-25 44 5 12 13 15 25 10 50-22 92-29 104-17 19 19-6 59-52 82-47 24-51 45-15 85 22 23 24 29 13 43-7 8-12 24-10 34 2 11-2 25-8 33-8 10 0 21 39 49 59 43 66 58 40 82-32 29-61 102-48 125 8 16 4 22-26 40-42 25-44 44-9 80 22 23 24 28 10 41-8 9-32 19-53 22-67 12-91 26-98 57-5 21-1 37 14 58 26 37 63 122 56 129-3 3-30-19-61-49-53-52-56-53-70-35-8 11-14 26-14 33 0 16-24 17-52 2-18-10-27-4-74 46l-53 58 24 42c28 47 32 77 11 94-19 16-87-1-138-35-48-30-83-31-1e2-1-7 12-15 72-18 132-5 101-7 110-25 113-12 2-24 0-28-4zm83-364c0-10-9-24-20-30-17-9-20-8-20 8 0 18 18 42 32 42 4 0 8-9 8-20zm210-69c-1-16-19-33-29-27-12 8-15 49-4 60 7 7 33-20 33-33zm-241-3c56-59 53-172-6-287-45-89-78-116-138-116-70 0-132 58-142 132-7 56 31 137 99 209 78 84 146 106 187 62zm294-129c33-64 46-171 28-236-39-143-201-180-262-61-44 87-9 255 69 331 67 64 121 53 165-34zm-653-68c0-23-14-41-31-41-20 0-23 8-13 34 6 17 44 23 44 7zm31-135c10-17 24-55 30-84 9-45 8-61-5-97-22-56-46-76-99-82-94-11-157 38-157 122 0 67 65 145 142 171 44 15 66 7 89-30zm749-90c0-21-11-46-20-46-12 0-20 28-14 45 8 19 34 20 34 1zm-423-86c41-25 80-87 95-150 7-32 26-67 53-1e2 72-88 79-147 27-243-53-99-151-103-262-12-61 50-80 55-212 55-67 0-108 5-127 15-60 31-80 140-40 223 25 50 90 98 148 108 22 4 51 21 76 45 78 74 178 99 242 59zm364 0c37-20 63-89 64-169 0-73 0-73-39-107-45-39-73-42-132-15-55 25-84 64-84 113 0 49 18 83 67 129 61 58 87 68 124 49z"/><path d="M1164 1866c-10-27 1-51 21-48 29 5 47 26 39 45-8 21-53 23-60 3z"/><path d="M1627 1683c-13-12-7-53 7-53 17 0 48 39 40 52-6 10-38 11-47 1z"/><path d="M247 1413c-12-11-7-33 7-33 12 0 26 20 26 36 0 7-26 5-33-3z"/><path d="M1675 14e2c-4-7-3-16 3-22 14-14 45-2 40 15-6 16-34 21-43 7z"/><path d="M1756 1403c-11-12-6-33 8-33 19 0 28 27 11 33-7 3-16 3-19 0z"/><path d="M130 1345c0-41 28-62 60-45 11 6 20 16 20 23 0 25-31 57-56 57-21 0-24-5-24-35z"/><path d="M1797 1151c-75-17-83-34-16-39 95-7 171 22 128 49-18 11-29 10-112-10z"/><path d="M296 615c-3-8-12-15-20-15-20 0-27-25-11-47 13-17 15-17 44 11 35 34 41 66 12 66-10 0-21-7-25-15z"/><path d="M1762 589c5-33 34-48 54-28 14 15 14 18-1 33-25 24-57 21-53-5z"/><path d="M11 411c-12-8-12-12-2-25 20-24 43-20 39 6-3 25-17 32-37 19z"/><path d="M983 278c-18-24-22-46-9-51 19-7 36 12 36 40 0 25-12 30-27 11z"/><path d="M1580 260c0-33 32-90 52-90 25 0 42 35 28 59-12 23-49 51-67 51-7 0-13-9-13-20z"/></g></svg>