<svg version="1.0" xmlns="http://www.w3.org/2000/svg" width="209pt" height="242pt" viewBox="0 0 209 242"><g transform="translate(0.000000,242.000000) scale(0.100000,-0.100000)" fill="#e05785" stroke="none"><path d="M830 2061c-203-44-363-132-516-285-156-156-242-314-286-526C2 1125 7 905 38 788c45-168 142-342 253-457l53-54 48 144c26 79 50 150 53 157 3 9 19-4 43-35 202-254 495-328 811-203 30 11 55 19 57 17 2-1-19-76-45-165l-49-163 32 7c67 14 210 73 285 119 144 87 263 206 352 350 203 329 2e2 760-8 1093-63 102-198 241-299 308-82 54-209 118-224 112-5-2 7-28 26-58 156-244 245-561 231-820-14-242-109-466-261-615-284-278-747-188-877 171-26 71-31 238-10 324 33 132 111 258 235 378 36 35 82 90 101 123 76 124 125 311 125 475v84l-27-1c-16 0-66-9-113-18z"/></g></svg>